# xmcd
#
# Track frame offsets:
#	150
#	13760
#	30368
#	47109
#	68086
#	83913
#	99441
#	115307
#	134810
#	148208
#	168855
#	185686
#
# Disc length: 2722 seconds
#
# Revision: 0
# Processed by: cddbd v1.5.1PL2 Copyright (c) Steve Scherf et al.
# Submitted via: dBpowerAMP V4.0
#
DISCID=a70aa00c
DTITLE=Don Blas - The Modus
DYEAR=1900
DGENRE=Hip-Hop
TTITLE0=Da Cash
TTITLE1=Tell Da Cops
TTITLE2=Givin' It Up
TTITLE3=G-Show
TTITLE4=Talk 2 Much
TTITLE5=Get Back 2 Me
TTITLE6=I Plead Guilty
TTITLE7=Sweetest Thing
TTITLE8=Sheisty 1
TTITLE9=1 Nite
TTITLE10=My Cliney
TTITLE11=Back 2 Da Streets
EXTD=
EXTT0=
EXTT1=
EXTT2=
EXTT3=
EXTT4=
EXTT5=
EXTT6=
EXTT7=
EXTT8=
EXTT9=
EXTT10=
EXTT11=
PLAYORDER=
